# xmcd
#
# Track frame offsets:
#	150
#	11296
#	20890
#	33357
#	45140
#	60190
#	72243
#	84171
#	97199
#	107584
#	119109
#	132228
#	148450
#	167174
#	180892
#	192496
#	208009
#	216821
#
# Disc length: 3052 seconds
#
# Revision: 1
# Processed by: cddbd v1.5.2PL0 Copyright (c) Steve Scherf et al.
# Submitted via: audiograbber 1.83.01
#
DISCID=fb0bea12
DTITLE=Discipline - Old pride, new glory
DYEAR=2008
DGENRE=Punk
TTITLE0=War on the terraces
TTITLE1=Astro zombies
TTITLE2=One of the boys
TTITLE3=When I'm dancing I ain't fighting
TTITLE4=Runnin' Riot
TTITLE5=Hang up ypur boots
TTITLE6=No more heroes
TTITLE7=Generation of scars
TTITLE8=Nice Boys
TTITLE9=Saturday heroes
TTITLE10=A tale of Moran
TTITLE11=Chaos
TTITLE12=Prison bound
TTITLE13=Saturdays glory
TTITLE14=Fight to live
TTITLE15=Violence in our minds
TTITLE16=Crucified
TTITLE17=Frontline skins
EXTD=
EXTT0=
EXTT1=
EXTT2=
EXTT3=
EXTT4=
EXTT5=
EXTT6=
EXTT7=
EXTT8=
EXTT9=
EXTT10=
EXTT11=
EXTT12=
EXTT13=
EXTT14=
EXTT15=
EXTT16=
EXTT17=
PLAYORDER=
